<svg xmlns="http://www.w3.org/2000/svg" xmlns:xlink="http://www.w3.org/1999/xlink" width="500" zoomAndPan="magnify" viewBox="0 0 375 149.999998" height="200" preserveAspectRatio="xMidYMid meet" version="1.0"><defs><g/><clipPath id="d2f34027b8"><path d="M 38.265625 43.429688 L 119.398438 43.429688 L 119.398438 114.3125 L 38.265625 114.3125 Z M 38.265625 43.429688 " clip-rule="nonzero"/></clipPath><clipPath id="6216548a1d"><path d="M 78.773438 43.429688 L 119.277344 114.3125 L 38.265625 114.3125 Z M 78.773438 43.429688 " clip-rule="nonzero"/></clipPath><clipPath id="741889dac5"><path d="M 50.285156 35.6875 L 131.28125 35.6875 L 131.28125 106.5625 L 50.285156 106.5625 Z M 50.285156 35.6875 " clip-rule="nonzero"/></clipPath><clipPath id="126e883734"><path d="M 90.785156 35.6875 L 131.285156 106.5625 L 50.285156 106.5625 Z M 90.785156 35.6875 " clip-rule="nonzero"/></clipPath></defs><g fill="#000000" fill-opacity="1"><g transform="translate(132.141323, 96.630501)"><g><path d="M 26.3125 0.78125 C 21.707031 0.78125 17.613281 -0.226562 14.03125 -2.25 C 10.445312 -4.269531 7.632812 -7.046875 5.59375 -10.578125 C 3.5625 -14.117188 2.546875 -18.171875 2.546875 -22.734375 C 2.546875 -27.378906 3.5625 -31.472656 5.59375 -35.015625 C 7.632812 -38.554688 10.445312 -41.332031 14.03125 -43.34375 C 17.613281 -45.363281 21.707031 -46.375 26.3125 -46.375 C 28.96875 -46.375 31.457031 -45.960938 33.78125 -45.140625 C 36.101562 -44.316406 38.195312 -43.195312 40.0625 -41.78125 C 41.925781 -40.375 43.445312 -38.738281 44.625 -36.875 L 38.5 -32.96875 C 37.675781 -34.21875 36.613281 -35.34375 35.3125 -36.34375 C 34.007812 -37.34375 32.585938 -38.113281 31.046875 -38.65625 C 29.503906 -39.195312 27.925781 -39.46875 26.3125 -39.46875 C 23.1875 -39.46875 20.414062 -38.75 18 -37.3125 C 15.59375 -35.882812 13.695312 -33.921875 12.3125 -31.421875 C 10.925781 -28.929688 10.234375 -26.035156 10.234375 -22.734375 C 10.234375 -19.515625 10.914062 -16.644531 12.28125 -14.125 C 13.644531 -11.613281 15.550781 -9.640625 18 -8.203125 C 20.457031 -6.773438 23.296875 -6.0625 26.515625 -6.0625 C 29.035156 -6.0625 31.289062 -6.582031 33.28125 -7.625 C 35.28125 -8.664062 36.851562 -10.117188 38 -11.984375 C 39.15625 -13.847656 39.734375 -16 39.734375 -18.4375 L 46.96875 -19.34375 C 46.96875 -15.21875 46.085938 -11.644531 44.328125 -8.625 C 42.566406 -5.613281 40.132812 -3.289062 37.03125 -1.65625 C 33.925781 -0.03125 30.351562 0.78125 26.3125 0.78125 Z M 28.796875 -17.84375 L 28.796875 -23.96875 L 46.96875 -23.96875 L 46.96875 -18.890625 L 42.921875 -17.84375 Z M 28.796875 -17.84375 "/></g></g></g><g fill="#000000" fill-opacity="1"><g transform="translate(180.990374, 96.630501)"><g><path d="M 18.5625 0.78125 C 15.394531 0.78125 12.582031 0.0546875 10.125 -1.390625 C 7.675781 -2.847656 5.742188 -4.859375 4.328125 -7.421875 C 2.921875 -9.984375 2.21875 -12.9375 2.21875 -16.28125 C 2.21875 -19.625 2.929688 -22.578125 4.359375 -25.140625 C 5.796875 -27.703125 7.757812 -29.710938 10.25 -31.171875 C 12.75 -32.628906 15.609375 -33.359375 18.828125 -33.359375 C 21.734375 -33.359375 24.359375 -32.609375 26.703125 -31.109375 C 29.046875 -29.609375 30.898438 -27.445312 32.265625 -24.625 C 33.640625 -21.800781 34.328125 -18.4375 34.328125 -14.53125 L 8.734375 -14.53125 L 9.703125 -15.4375 C 9.703125 -13.4375 10.132812 -11.707031 11 -10.25 C 11.875 -8.800781 13.023438 -7.6875 14.453125 -6.90625 C 15.890625 -6.125 17.476562 -5.734375 19.21875 -5.734375 C 21.21875 -5.734375 22.867188 -6.175781 24.171875 -7.0625 C 25.472656 -7.957031 26.492188 -9.117188 27.234375 -10.546875 L 33.671875 -7.8125 C 32.765625 -6.082031 31.601562 -4.5625 30.1875 -3.25 C 28.78125 -1.945312 27.109375 -0.945312 25.171875 -0.25 C 23.242188 0.4375 21.039062 0.78125 18.5625 0.78125 Z M 10.15625 -19.21875 L 9.125 -20.125 L 27.484375 -20.125 L 26.515625 -19.21875 C 26.515625 -21 26.125 -22.460938 25.34375 -23.609375 C 24.5625 -24.765625 23.570312 -25.632812 22.375 -26.21875 C 21.175781 -26.800781 19.925781 -27.09375 18.625 -27.09375 C 17.320312 -27.09375 16.019531 -26.800781 14.71875 -26.21875 C 13.414062 -25.632812 12.328125 -24.765625 11.453125 -23.609375 C 10.585938 -22.460938 10.15625 -21 10.15625 -19.21875 Z M 10.15625 -19.21875 "/></g></g></g><g fill="#000000" fill-opacity="1"><g transform="translate(216.878145, 96.630501)"><g><path d="M 4.03125 0 L 4.03125 -32.578125 L 10.875 -32.578125 L 11.328125 -26.578125 L 11.328125 0 Z M 26.125 0 L 26.125 -16.671875 L 33.421875 -16.671875 L 33.421875 0 Z M 26.125 -16.671875 C 26.125 -19.273438 25.828125 -21.28125 25.234375 -22.6875 C 24.648438 -24.101562 23.828125 -25.09375 22.765625 -25.65625 C 21.703125 -26.226562 20.453125 -26.515625 19.015625 -26.515625 C 16.585938 -26.554688 14.695312 -25.75 13.34375 -24.09375 C 12 -22.445312 11.328125 -20.082031 11.328125 -17 L 8.59375 -17 C 8.59375 -20.425781 9.09375 -23.367188 10.09375 -25.828125 C 11.09375 -28.285156 12.523438 -30.15625 14.390625 -31.4375 C 16.265625 -32.71875 18.484375 -33.359375 21.046875 -33.359375 C 23.648438 -33.359375 25.875 -32.832031 27.71875 -31.78125 C 29.5625 -30.738281 30.972656 -29.117188 31.953125 -26.921875 C 32.929688 -24.734375 33.421875 -21.882812 33.421875 -18.375 L 33.421875 -16.671875 Z M 26.125 -16.671875 "/></g></g></g><g fill="#000000" fill-opacity="1"><g transform="translate(253.612636, 96.630501)"><g><path d="M 20.390625 0.78125 C 18.003906 0.78125 15.820312 0.5 13.84375 -0.0625 C 11.863281 -0.625 10.125 -1.40625 8.625 -2.40625 C 7.132812 -3.40625 5.898438 -4.523438 4.921875 -5.765625 C 3.941406 -7.003906 3.253906 -8.296875 2.859375 -9.640625 L 10.296875 -11.921875 C 10.859375 -10.316406 11.960938 -8.90625 13.609375 -7.6875 C 15.265625 -6.46875 17.304688 -5.835938 19.734375 -5.796875 C 22.554688 -5.796875 24.789062 -6.378906 26.4375 -7.546875 C 28.09375 -8.722656 28.921875 -10.269531 28.921875 -12.1875 C 28.921875 -13.914062 28.222656 -15.332031 26.828125 -16.4375 C 25.441406 -17.550781 23.578125 -18.410156 21.234375 -19.015625 L 15.640625 -20.453125 C 13.503906 -21.015625 11.578125 -21.835938 9.859375 -22.921875 C 8.148438 -24.015625 6.804688 -25.382812 5.828125 -27.03125 C 4.847656 -28.6875 4.359375 -30.640625 4.359375 -32.890625 C 4.359375 -37.148438 5.75 -40.460938 8.53125 -42.828125 C 11.3125 -45.191406 15.285156 -46.375 20.453125 -46.375 C 23.359375 -46.375 25.90625 -45.925781 28.09375 -45.03125 C 30.289062 -44.144531 32.109375 -42.929688 33.546875 -41.390625 C 34.984375 -39.847656 36.046875 -38.101562 36.734375 -36.15625 L 29.4375 -33.8125 C 28.789062 -35.539062 27.660156 -36.96875 26.046875 -38.09375 C 24.441406 -39.226562 22.445312 -39.796875 20.0625 -39.796875 C 17.582031 -39.796875 15.632812 -39.207031 14.21875 -38.03125 C 12.8125 -36.863281 12.109375 -35.238281 12.109375 -33.15625 C 12.109375 -31.457031 12.660156 -30.140625 13.765625 -29.203125 C 14.878906 -28.273438 16.390625 -27.570312 18.296875 -27.09375 L 23.90625 -25.734375 C 27.988281 -24.734375 31.15625 -23.015625 33.40625 -20.578125 C 35.664062 -18.148438 36.796875 -15.457031 36.796875 -12.5 C 36.796875 -9.894531 36.164062 -7.59375 34.90625 -5.59375 C 33.65625 -3.601562 31.800781 -2.039062 29.34375 -0.90625 C 26.894531 0.21875 23.910156 0.78125 20.390625 0.78125 Z M 20.390625 0.78125 "/></g></g></g><g fill="#000000" fill-opacity="1"><g transform="translate(293.343201, 96.630501)"><g><path d="M 0.65625 0 L 18.296875 -25.015625 L 32.703125 -45.59375 L 41.6875 -45.59375 L 24.421875 -21.75 L 9.765625 0 Z M 32.765625 0 L 18.171875 -21.75 L 0.84375 -45.59375 L 9.90625 -45.59375 L 24.296875 -25.015625 L 41.890625 0 Z M 32.765625 0 "/></g></g></g><g clip-path="url(#d2f34027b8)"><g clip-path="url(#6216548a1d)"><path fill="#ffde59" d="M 38.265625 43.429688 L 119.398438 43.429688 L 119.398438 114.3125 L 38.265625 114.3125 Z M 38.265625 43.429688 " fill-opacity="1" fill-rule="nonzero"/></g></g><g clip-path="url(#741889dac5)"><g clip-path="url(#126e883734)"><path stroke-linecap="butt" transform="matrix(0.75, 0, 0, 0.75, 50.286747, 35.685897)" fill="none" stroke-linejoin="miter" d="M 53.997883 0.00213728 L 107.997886 94.502143 L -0.00212046 94.502143 Z M 53.997883 0.00213728 " stroke="#000000" stroke-width="16" stroke-opacity="1" stroke-miterlimit="4"/></g></g></svg>