<svg xmlns="http://www.w3.org/2000/svg" xmlns:xlink="http://www.w3.org/1999/xlink" width="500" zoomAndPan="magnify" viewBox="0 0 375 149.999998" height="200" preserveAspectRatio="xMidYMid meet" version="1.0"><defs><filter x="0%" y="0%" width="100%" height="100%" id="6656164774"><feColorMatrix values="0 0 0 0 1 0 0 0 0 1 0 0 0 0 1 0 0 0 1 0" color-interpolation-filters="sRGB"/></filter><g/><mask id="f9b76a0fa5"><g filter="url(#6656164774)"><rect x="-37.5" width="450" fill="#000000" y="-15" height="179.999997" fill-opacity="0.9"/></g></mask><clipPath id="d2f79a407c"><path d="M 0 0.480469 L 96.417969 0.480469 L 96.417969 84.722656 L 0 84.722656 Z M 0 0.480469 " clip-rule="nonzero"/></clipPath><clipPath id="b33cef61d7"><path d="M 48.136719 0.480469 L 96.277344 84.722656 L 0 84.722656 Z M 48.136719 0.480469 " clip-rule="nonzero"/></clipPath><clipPath id="80fc1f36b0"><rect x="0" width="97" y="0" height="85"/></clipPath><clipPath id="21fd278540"><path d="M 16.84375 27.800781 L 112.84375 27.800781 L 112.84375 111.800781 L 16.84375 111.800781 Z M 16.84375 27.800781 " clip-rule="nonzero"/></clipPath><clipPath id="7f9a121854"><path d="M 64.980469 27.800781 L 113.113281 112.035156 L 16.84375 112.035156 Z M 64.980469 27.800781 " clip-rule="nonzero"/></clipPath><clipPath id="3f250dfe53"><path d="M 147.539062 65.25 L 163.988281 65.25 L 163.988281 84.75 L 147.539062 84.75 Z M 147.539062 65.25 " clip-rule="nonzero"/></clipPath></defs><g mask="url(#f9b76a0fa5)"><g transform="matrix(1, 0, 0, 1, 0, 37)"><g clip-path="url(#80fc1f36b0)"><g clip-path="url(#d2f79a407c)"><g clip-path="url(#b33cef61d7)"><path fill="#ffde59" d="M 0 0.480469 L 96.417969 0.480469 L 96.417969 84.722656 L 0 84.722656 Z M 0 0.480469 " fill-opacity="1" fill-rule="nonzero"/></g></g></g></g></g><g clip-path="url(#21fd278540)"><g clip-path="url(#7f9a121854)"><path stroke-linecap="butt" transform="matrix(0.75, 0, 0, 0.75, 16.844887, 27.801387)" fill="none" stroke-linejoin="miter" d="M 64.180776 -0.000807691 L 128.357859 112.311692 L -0.0015156 112.311692 Z M 64.180776 -0.000807691 " stroke="#ffffff" stroke-width="16" stroke-opacity="1" stroke-miterlimit="4"/></g></g><g fill="#ffffff" fill-opacity="1"><g transform="translate(128.605806, 101.249996)"><g><path d="M 33.3125 1.140625 C 29.082031 1.140625 25.171875 0.492188 21.578125 -0.796875 C 17.984375 -2.085938 14.835938 -3.941406 12.140625 -6.359375 C 9.441406 -8.773438 7.34375 -11.679688 5.84375 -15.078125 C 4.351562 -18.472656 3.609375 -22.285156 3.609375 -26.515625 C 3.609375 -30.722656 4.328125 -34.53125 5.765625 -37.9375 C 7.210938 -41.34375 9.234375 -44.265625 11.828125 -46.703125 C 14.429688 -49.148438 17.484375 -51.03125 20.984375 -52.34375 C 24.492188 -53.664062 28.328125 -54.328125 32.484375 -54.328125 C 34.410156 -54.328125 36.359375 -54.175781 38.328125 -53.875 C 40.304688 -53.570312 42.25 -53.070312 44.15625 -52.375 C 46.070312 -51.675781 47.894531 -50.734375 49.625 -49.546875 L 45.890625 -42.859375 C 43.960938 -44.066406 41.878906 -44.972656 39.640625 -45.578125 C 37.398438 -46.191406 35.09375 -46.5 32.71875 -46.5 C 29.625 -46.5 26.820312 -46.035156 24.3125 -45.109375 C 21.800781 -44.191406 19.660156 -42.863281 17.890625 -41.125 C 16.117188 -39.394531 14.757812 -37.300781 13.8125 -34.84375 C 12.863281 -32.382812 12.390625 -29.625 12.390625 -26.5625 C 12.390625 -22.25 13.300781 -18.585938 15.125 -15.578125 C 16.945312 -12.566406 19.457031 -10.28125 22.65625 -8.71875 C 25.863281 -7.15625 29.554688 -6.375 33.734375 -6.375 C 35.785156 -6.375 37.632812 -6.570312 39.28125 -6.96875 C 40.925781 -7.363281 42.253906 -7.8125 43.265625 -8.3125 L 43.265625 -21.15625 L 31.1875 -21.15625 L 31.1875 -28.234375 L 50.90625 -28.234375 L 50.90625 -3.375 C 49.507812 -2.4375 47.765625 -1.625 45.671875 -0.9375 C 43.585938 -0.257812 41.4375 0.253906 39.21875 0.609375 C 37.007812 0.960938 35.039062 1.140625 33.3125 1.140625 Z M 33.3125 1.140625 "/></g></g></g><g fill="#ffffff" fill-opacity="1"><g transform="translate(185.661284, 101.249996)"><g><path d="M 22.984375 1.140625 C 18.929688 1.140625 15.375 0.3125 12.3125 -1.34375 C 9.25 -3.007812 6.859375 -5.332031 5.140625 -8.3125 C 3.429688 -11.300781 2.578125 -14.773438 2.578125 -18.734375 C 2.578125 -21.617188 3.070312 -24.28125 4.0625 -26.71875 C 5.050781 -29.164062 6.441406 -31.285156 8.234375 -33.078125 C 10.035156 -34.878906 12.144531 -36.273438 14.5625 -37.265625 C 16.988281 -38.253906 19.628906 -38.75 22.484375 -38.75 C 25.609375 -38.75 28.382812 -38.195312 30.8125 -37.09375 C 33.238281 -36 35.253906 -34.460938 36.859375 -32.484375 C 38.472656 -30.503906 39.613281 -28.191406 40.28125 -25.546875 C 40.957031 -22.898438 41.066406 -20.03125 40.609375 -16.9375 L 10.59375 -16.9375 C 10.550781 -14.6875 11.046875 -12.71875 12.078125 -11.03125 C 13.117188 -9.351562 14.609375 -8.046875 16.546875 -7.109375 C 18.484375 -6.171875 20.769531 -5.703125 23.40625 -5.703125 C 25.53125 -5.703125 27.585938 -6.023438 29.578125 -6.671875 C 31.566406 -7.316406 33.367188 -8.269531 34.984375 -9.53125 L 38.21875 -3.53125 C 37 -2.539062 35.53125 -1.695312 33.8125 -1 C 32.09375 -0.3125 30.296875 0.210938 28.421875 0.578125 C 26.546875 0.953125 24.734375 1.140625 22.984375 1.140625 Z M 11.09375 -23.09375 L 32.40625 -23.09375 C 32.332031 -25.9375 31.425781 -28.164062 29.6875 -29.78125 C 27.957031 -31.40625 25.492188 -32.21875 22.296875 -32.21875 C 19.210938 -32.21875 16.648438 -31.40625 14.609375 -29.78125 C 12.566406 -28.164062 11.394531 -25.9375 11.09375 -23.09375 Z M 11.09375 -23.09375 "/></g></g></g><g fill="#ffffff" fill-opacity="1"><g transform="translate(229.155639, 101.249996)"><g><path d="M 5.8125 0 L 5.8125 -37.609375 L 14.171875 -37.609375 L 14.171875 -32.828125 C 15.742188 -34.929688 17.566406 -36.441406 19.640625 -37.359375 C 21.710938 -38.285156 23.863281 -38.75 26.09375 -38.75 C 29.539062 -38.75 32.390625 -38.066406 34.640625 -36.703125 C 36.898438 -35.335938 38.578125 -33.578125 39.671875 -31.421875 C 40.773438 -29.265625 41.328125 -27.046875 41.328125 -24.765625 L 41.328125 0 L 32.984375 0 L 32.984375 -22.1875 C 32.984375 -24.875 32.175781 -27.023438 30.5625 -28.640625 C 28.957031 -30.265625 26.722656 -31.078125 23.859375 -31.078125 C 21.984375 -31.078125 20.316406 -30.65625 18.859375 -29.8125 C 17.398438 -28.976562 16.253906 -27.820312 15.421875 -26.34375 C 14.585938 -24.863281 14.171875 -23.132812 14.171875 -21.15625 L 14.171875 0 Z M 5.8125 0 "/></g></g></g><g fill="#ffffff" fill-opacity="1"><g transform="translate(275.916813, 101.249996)"><g><path d="M 24.234375 1.140625 C 20.566406 1.140625 16.976562 0.613281 13.46875 -0.4375 C 9.957031 -1.488281 7 -3.003906 4.59375 -4.984375 L 8.78125 -11.46875 C 10.039062 -10.382812 11.515625 -9.445312 13.203125 -8.65625 C 14.890625 -7.875 16.679688 -7.273438 18.578125 -6.859375 C 20.472656 -6.441406 22.375 -6.234375 24.28125 -6.234375 C 27.75 -6.234375 30.550781 -6.890625 32.6875 -8.203125 C 34.832031 -9.523438 35.90625 -11.453125 35.90625 -13.984375 C 35.90625 -15.878906 35.175781 -17.484375 33.71875 -18.796875 C 32.257812 -20.117188 29.566406 -21.335938 25.640625 -22.453125 L 20.171875 -24.046875 C 15.160156 -25.492188 11.507812 -27.40625 9.21875 -29.78125 C 6.925781 -32.164062 5.78125 -35.128906 5.78125 -38.671875 C 5.78125 -41.023438 6.253906 -43.148438 7.203125 -45.046875 C 8.148438 -46.953125 9.488281 -48.601562 11.21875 -50 C 12.957031 -51.394531 15.003906 -52.457031 17.359375 -53.1875 C 19.710938 -53.925781 22.296875 -54.296875 25.109375 -54.296875 C 28.679688 -54.296875 32 -53.773438 35.0625 -52.734375 C 38.125 -51.691406 40.660156 -50.296875 42.671875 -48.546875 L 38.328125 -42.25 C 37.242188 -43.238281 35.972656 -44.085938 34.515625 -44.796875 C 33.054688 -45.503906 31.488281 -46.046875 29.8125 -46.421875 C 28.144531 -46.804688 26.453125 -47 24.734375 -47 C 22.609375 -47 20.726562 -46.6875 19.09375 -46.0625 C 17.457031 -45.445312 16.179688 -44.554688 15.265625 -43.390625 C 14.359375 -42.222656 13.90625 -40.800781 13.90625 -39.125 C 13.90625 -37.914062 14.207031 -36.851562 14.8125 -35.9375 C 15.425781 -35.03125 16.472656 -34.203125 17.953125 -33.453125 C 19.429688 -32.703125 21.476562 -31.945312 24.09375 -31.1875 L 29.859375 -29.484375 C 34.773438 -28.035156 38.375 -26.148438 40.65625 -23.828125 C 42.9375 -21.515625 44.078125 -18.507812 44.078125 -14.8125 C 44.078125 -11.644531 43.296875 -8.863281 41.734375 -6.46875 C 40.171875 -4.082031 37.90625 -2.21875 34.9375 -0.875 C 31.976562 0.46875 28.410156 1.140625 24.234375 1.140625 Z M 24.234375 1.140625 "/></g></g></g><g fill="#ffffff" fill-opacity="1"><g transform="translate(323.627652, 101.249996)"><g><path d="M 2.015625 0 L 19.265625 -27.28125 L 2.921875 -53.1875 L 13.109375 -53.1875 L 25.375 -33.546875 L 38.484375 -53.1875 L 48.359375 -53.1875 L 31.1875 -27.046875 L 48.859375 0 L 38.640625 0 L 25.03125 -20.9375 L 11.921875 0 Z M 2.015625 0 "/></g></g></g><g clip-path="url(#3f250dfe53)"><path fill="#000000" d="M 147.539062 65.25 L 163.988281 65.25 L 163.988281 84.71875 L 147.539062 84.71875 Z M 147.539062 65.25 " fill-opacity="1" fill-rule="nonzero"/></g></svg>