<svg xmlns="http://www.w3.org/2000/svg" xmlns:xlink="http://www.w3.org/1999/xlink" width="500" zoomAndPan="magnify" viewBox="0 0 375 374.999991" height="500" preserveAspectRatio="xMidYMid meet" version="1.2"><defs><clipPath id="bfc633e70b"><path d="M 106.746094 34.058594 L 272.058594 34.058594 L 272.058594 199.375 L 106.746094 199.375 Z M 106.746094 34.058594 "/></clipPath><clipPath id="313700b78f"><path d="M 189.402344 34.058594 C 143.75 34.058594 106.746094 71.066406 106.746094 116.714844 C 106.746094 162.367188 143.75 199.375 189.402344 199.375 C 235.050781 199.375 272.058594 162.367188 272.058594 116.714844 C 272.058594 71.066406 235.050781 34.058594 189.402344 34.058594 Z M 189.402344 34.058594 "/></clipPath><clipPath id="d41b87b383"><path d="M 66.863281 10 L 308.363281 10 L 308.363281 373 L 66.863281 373 Z M 66.863281 10 "/></clipPath><clipPath id="1f52f0672d"><path d="M 95 151 L 280 151 L 280 312 L 95 312 Z M 95 151 "/></clipPath><clipPath id="63dadb56af"><path d="M 49.550781 231.496094 L 140.710938 72.042969 L 280.027344 151.691406 L 188.867188 311.144531 Z M 49.550781 231.496094 "/></clipPath><clipPath id="4728c9d049"><path d="M 95.0625 151.886719 L 279.894531 151.925781 L 188.867188 311.144531 Z M 95.0625 151.886719 "/></clipPath><clipPath id="208cabac5e"><path d="M 95 151 L 280 151 L 280 312 L 95 312 Z M 95 151 "/></clipPath><clipPath id="73f86e5d50"><path d="M 49.550781 231.496094 L 140.75 71.976562 L 280.085938 151.632812 L 188.886719 311.15625 Z M 49.550781 231.496094 "/></clipPath><clipPath id="b606afffe8"><path d="M 49.550781 231.496094 L 140.578125 72.28125 L 279.890625 151.925781 L 188.867188 311.140625 Z M 49.550781 231.496094 "/></clipPath><clipPath id="2fb1fc5c54"><path d="M 95.0625 151.886719 L 279.890625 151.925781 L 188.867188 311.140625 Z M 95.0625 151.886719 "/></clipPath><clipPath id="3feefa1d04"><path d="M 94 80 L 282 80 L 282 242 L 94 242 Z M 94 80 "/></clipPath><clipPath id="d2e0767950"><path d="M 48.214844 161.066406 L 140.433594 -0.238281 L 281.367188 80.335938 L 189.148438 241.640625 Z M 48.214844 161.066406 "/></clipPath><clipPath id="ef942ba312"><path d="M 94.253906 80.53125 L 281.234375 80.570312 L 189.148438 241.640625 Z M 94.253906 80.53125 "/></clipPath></defs><g id="dc7ccf5f9e"><g clip-rule="nonzero" clip-path="url(#bfc633e70b)"><g clip-rule="nonzero" clip-path="url(#313700b78f)"><path style=" stroke:none;fill-rule:nonzero;fill:#000000;fill-opacity:1;" d="M 106.746094 34.058594 L 272.058594 34.058594 L 272.058594 199.375 L 106.746094 199.375 Z M 106.746094 34.058594 "/></g></g><g clip-rule="nonzero" clip-path="url(#d41b87b383)"><path style=" stroke:none;fill-rule:nonzero;fill:#000000;fill-opacity:1;" d="M 187.609375 10.53125 C 120.890625 10.53125 66.789062 64.609375 66.789062 131.320312 C 66.789062 198.003906 187.609375 372.816406 187.609375 372.816406 C 187.609375 372.816406 308.429688 198.003906 308.429688 131.320312 C 308.429688 64.609375 254.324219 10.53125 187.609375 10.53125 Z M 187.609375 188.496094 C 152.488281 188.496094 124.019531 160.066406 124.019531 124.929688 C 124.019531 89.851562 152.488281 61.398438 187.609375 61.398438 C 222.730469 61.398438 251.171875 89.851562 251.171875 124.929688 C 251.171875 160.066406 222.730469 188.496094 187.609375 188.496094 Z M 187.609375 188.496094 "/></g><g clip-rule="nonzero" clip-path="url(#1f52f0672d)"><g clip-rule="nonzero" clip-path="url(#63dadb56af)"><g clip-rule="nonzero" clip-path="url(#4728c9d049)"><path style=" stroke:none;fill-rule:nonzero;fill:#ffffff;fill-opacity:1;" d="M 49.550781 231.496094 L 140.710938 72.042969 L 280.027344 151.691406 L 188.867188 311.144531 Z M 49.550781 231.496094 "/></g></g></g><g clip-rule="nonzero" clip-path="url(#208cabac5e)"><g clip-rule="nonzero" clip-path="url(#73f86e5d50)"><g clip-rule="nonzero" clip-path="url(#b606afffe8)"><g clip-rule="nonzero" clip-path="url(#2fb1fc5c54)"><path style="fill:none;stroke-width:32;stroke-linecap:butt;stroke-linejoin:miter;stroke:#ffffff;stroke-opacity:1;stroke-miterlimit:4;" d="M 122.266396 -0.0031519 L 244.532652 213.965103 L 0.00267524 213.965258 Z M 122.266396 -0.0031519 " transform="matrix(0.372239,-0.651105,0.651105,0.372239,49.552259,231.496202)"/></g></g></g></g><g clip-rule="nonzero" clip-path="url(#3feefa1d04)"><g clip-rule="nonzero" clip-path="url(#d2e0767950)"><g clip-rule="nonzero" clip-path="url(#ef942ba312)"><path style=" stroke:none;fill-rule:nonzero;fill:#ffde59;fill-opacity:1;" d="M 48.214844 161.066406 L 140.433594 -0.238281 L 281.367188 80.335938 L 189.148438 241.640625 Z M 48.214844 161.066406 "/></g></g></g></g></svg>