<svg xmlns="http://www.w3.org/2000/svg" xmlns:xlink="http://www.w3.org/1999/xlink" width="500" zoomAndPan="magnify" viewBox="0 0 375 374.999991" height="500" preserveAspectRatio="xMidYMid meet" version="1.2"><defs><clipPath id="a9e8079aeb"><path d="M 106.746094 34.058594 L 272.058594 34.058594 L 272.058594 199.375 L 106.746094 199.375 Z M 106.746094 34.058594 "/></clipPath><clipPath id="f72b2822c4"><path d="M 189.402344 34.058594 C 143.75 34.058594 106.746094 71.066406 106.746094 116.714844 C 106.746094 162.367188 143.75 199.375 189.402344 199.375 C 235.050781 199.375 272.058594 162.367188 272.058594 116.714844 C 272.058594 71.066406 235.050781 34.058594 189.402344 34.058594 Z M 189.402344 34.058594 "/></clipPath><clipPath id="256bc4d687"><path d="M 66.863281 10 L 308.363281 10 L 308.363281 373 L 66.863281 373 Z M 66.863281 10 "/></clipPath><clipPath id="a597596772"><path d="M 115 122 L 260 122 L 260 247 L 115 247 Z M 115 122 "/></clipPath><clipPath id="010f0a267e"><path d="M 80.273438 184.324219 L 151.144531 60.363281 L 259.453125 122.285156 L 188.582031 246.246094 Z M 80.273438 184.324219 "/></clipPath><clipPath id="c5199100fd"><path d="M 115.65625 122.433594 L 259.351562 122.464844 L 188.582031 246.246094 Z M 115.65625 122.433594 "/></clipPath><clipPath id="7ac038d811"><path d="M 115 122 L 259 122 L 259 247 L 115 247 Z M 115 122 "/></clipPath><clipPath id="bb7c869f47"><path d="M 80.273438 184.324219 L 151 60.617188 L 259.082031 122.40625 L 188.359375 246.117188 Z M 80.273438 184.324219 "/></clipPath><clipPath id="c33a086268"><path d="M 80.273438 184.324219 L 150.894531 60.800781 L 258.976562 122.59375 L 188.359375 246.117188 Z M 80.273438 184.324219 "/></clipPath><clipPath id="af27da11fa"><path d="M 115.585938 122.5625 L 258.976562 122.59375 L 188.359375 246.117188 Z M 115.585938 122.5625 "/></clipPath><clipPath id="0dc4439b9d"><path d="M 115 66 L 261 66 L 261 193 L 115 193 Z M 115 66 "/></clipPath><clipPath id="245293a714"><path d="M 79.238281 129.570312 L 150.929688 4.164062 L 260.496094 66.804688 L 188.804688 192.207031 Z M 79.238281 129.570312 "/></clipPath><clipPath id="4366b79d94"><path d="M 115.03125 66.960938 L 260.390625 66.988281 L 188.804688 192.207031 Z M 115.03125 66.960938 "/></clipPath></defs><g id="52d945d9be"><g clip-rule="nonzero" clip-path="url(#a9e8079aeb)"><g clip-rule="nonzero" clip-path="url(#f72b2822c4)"><path style=" stroke:none;fill-rule:nonzero;fill:#000000;fill-opacity:1;" d="M 106.746094 34.058594 L 272.058594 34.058594 L 272.058594 199.375 L 106.746094 199.375 Z M 106.746094 34.058594 "/></g></g><g clip-rule="nonzero" clip-path="url(#256bc4d687)"><path style=" stroke:none;fill-rule:nonzero;fill:#000000;fill-opacity:1;" d="M 187.609375 10.53125 C 120.890625 10.53125 66.789062 64.609375 66.789062 131.320312 C 66.789062 198.003906 187.609375 372.816406 187.609375 372.816406 C 187.609375 372.816406 308.429688 198.003906 308.429688 131.320312 C 308.429688 64.609375 254.324219 10.53125 187.609375 10.53125 Z M 187.609375 188.496094 C 152.488281 188.496094 124.019531 160.066406 124.019531 124.929688 C 124.019531 89.851562 152.488281 61.398438 187.609375 61.398438 C 222.730469 61.398438 251.171875 89.851562 251.171875 124.929688 C 251.171875 160.066406 222.730469 188.496094 187.609375 188.496094 Z M 187.609375 188.496094 "/></g><g clip-rule="nonzero" clip-path="url(#a597596772)"><g clip-rule="nonzero" clip-path="url(#010f0a267e)"><g clip-rule="nonzero" clip-path="url(#c5199100fd)"><path style=" stroke:none;fill-rule:nonzero;fill:#ffffff;fill-opacity:1;" d="M 80.273438 184.324219 L 151.144531 60.363281 L 259.453125 122.285156 L 188.582031 246.246094 Z M 80.273438 184.324219 "/></g></g></g><g clip-rule="nonzero" clip-path="url(#7ac038d811)"><g clip-rule="nonzero" clip-path="url(#bb7c869f47)"><g clip-rule="nonzero" clip-path="url(#c33a086268)"><g clip-rule="nonzero" clip-path="url(#af27da11fa)"><path style="fill:none;stroke-width:32;stroke-linecap:butt;stroke-linejoin:miter;stroke:#ffffff;stroke-opacity:1;stroke-miterlimit:4;" d="M 95.055225 0.00114035 L 190.105362 166.343211 L 0.0000628672 166.344963 Z M 95.055225 0.00114035 " transform="matrix(0.37147,-0.64976,0.64976,0.37147,80.275077,184.325143)"/></g></g></g></g><g clip-rule="nonzero" clip-path="url(#0dc4439b9d)"><g clip-rule="nonzero" clip-path="url(#245293a714)"><g clip-rule="nonzero" clip-path="url(#4366b79d94)"><path style=" stroke:none;fill-rule:nonzero;fill:#ffde59;fill-opacity:1;" d="M 79.238281 129.570312 L 150.929688 4.164062 L 260.496094 66.804688 L 188.804688 192.207031 Z M 79.238281 129.570312 "/></g></g></g></g></svg>