<svg xmlns="http://www.w3.org/2000/svg" xmlns:xlink="http://www.w3.org/1999/xlink" width="500" zoomAndPan="magnify" viewBox="0 0 375 149.999998" height="200" preserveAspectRatio="xMidYMid meet" version="1.0"><defs><g/><clipPath id="7204dd5948"><path d="M 15 40 L 109 40 L 109 121.871094 L 15 121.871094 Z M 15 40 " clip-rule="nonzero"/></clipPath><clipPath id="4a84b8e34f"><path d="M 25 28.121094 L 126 28.121094 L 126 116 L 25 116 Z M 25 28.121094 " clip-rule="nonzero"/></clipPath></defs><g clip-path="url(#7204dd5948)"><path fill="#ffde59" d="M 61.953125 40.550781 L 15.003906 121.871094 L 108.90625 121.871094 L 61.953125 40.550781 L 15.003906 121.871094 L 108.90625 121.871094 Z M 61.953125 40.550781 " fill-opacity="1" fill-rule="nonzero"/></g><g clip-path="url(#4a84b8e34f)"><path fill="#000000" d="M 125.941406 115.488281 L 25.058594 115.488281 L 75.5 28.121094 L 77.246094 31.144531 L 124.195312 112.464844 Z M 32.039062 111.457031 L 118.964844 111.457031 L 75.5 36.179688 Z M 32.039062 111.457031 " fill-opacity="1" fill-rule="nonzero"/></g><g fill="#000000" fill-opacity="1"><g transform="translate(128.191249, 102.125751)"><g><path d="M 30.109375 -25.25 L 42.96875 -25.25 L 42.96875 -7.921875 C 40.84375 -5.390625 38.269531 -3.320312 35.25 -1.71875 C 32.226562 -0.125 28.941406 0.671875 25.390625 0.671875 C 22.191406 0.671875 19.171875 0.0234375 16.328125 -1.265625 C 13.484375 -2.554688 11.015625 -4.300781 8.921875 -6.5 C 6.835938 -8.695312 5.179688 -11.257812 3.953125 -14.1875 C 2.734375 -17.125 2.125 -20.253906 2.125 -23.578125 C 2.125 -26.867188 2.734375 -29.988281 3.953125 -32.9375 C 5.179688 -35.894531 6.835938 -38.472656 8.921875 -40.671875 C 11.015625 -42.867188 13.484375 -44.613281 16.328125 -45.90625 C 19.171875 -47.195312 22.191406 -47.84375 25.390625 -47.84375 C 28.316406 -47.84375 31.085938 -47.265625 33.703125 -46.109375 C 36.328125 -44.953125 38.6875 -43.441406 40.78125 -41.578125 L 36.640625 -36.3125 C 35.171875 -37.863281 33.472656 -39.113281 31.546875 -40.0625 C 29.617188 -41.019531 27.566406 -41.5 25.390625 -41.5 C 23.117188 -41.5 20.992188 -41.019531 19.015625 -40.0625 C 17.046875 -39.113281 15.328125 -37.816406 13.859375 -36.171875 C 12.390625 -34.535156 11.234375 -32.640625 10.390625 -30.484375 C 9.546875 -28.328125 9.125 -26.023438 9.125 -23.578125 C 9.125 -21.140625 9.546875 -18.84375 10.390625 -16.6875 C 11.234375 -14.53125 12.390625 -12.640625 13.859375 -11.015625 C 15.328125 -9.398438 17.046875 -8.125 19.015625 -7.1875 C 20.992188 -6.257812 23.117188 -5.796875 25.390625 -5.796875 C 27.472656 -5.796875 29.425781 -6.207031 31.25 -7.03125 C 33.070312 -7.851562 34.691406 -8.953125 36.109375 -10.328125 L 36.109375 -18.78125 L 30.109375 -18.78125 Z M 30.109375 -25.25 "/></g></g></g><g fill="#000000" fill-opacity="1"><g transform="translate(175.499185, 102.125751)"><g><path d="M 18.859375 0.796875 C 16.546875 0.796875 14.378906 0.363281 12.359375 -0.5 C 10.335938 -1.363281 8.570312 -2.550781 7.0625 -4.0625 C 5.550781 -5.570312 4.363281 -7.347656 3.5 -9.390625 C 2.632812 -11.429688 2.203125 -13.609375 2.203125 -15.921875 C 2.203125 -18.234375 2.609375 -20.410156 3.421875 -22.453125 C 4.242188 -24.492188 5.351562 -26.269531 6.75 -27.78125 C 8.15625 -29.289062 9.789062 -30.476562 11.65625 -31.34375 C 13.519531 -32.207031 15.519531 -32.640625 17.65625 -32.640625 C 19.832031 -32.640625 21.84375 -32.257812 23.6875 -31.5 C 25.53125 -30.75 27.128906 -29.570312 28.484375 -27.96875 C 29.835938 -26.375 30.890625 -24.34375 31.640625 -21.875 C 32.398438 -19.414062 32.78125 -16.476562 32.78125 -13.0625 L 9.0625 -13.0625 C 9.375 -11.90625 9.863281 -10.828125 10.53125 -9.828125 C 11.195312 -8.828125 11.984375 -7.957031 12.890625 -7.21875 C 13.796875 -6.488281 14.816406 -5.925781 15.953125 -5.53125 C 17.085938 -5.132812 18.273438 -4.9375 19.515625 -4.9375 C 21.203125 -4.9375 22.769531 -5.242188 24.21875 -5.859375 C 25.664062 -6.484375 26.898438 -7.304688 27.921875 -8.328125 L 31.90625 -4.328125 C 30.351562 -2.773438 28.457031 -1.53125 26.21875 -0.59375 C 23.976562 0.332031 21.523438 0.796875 18.859375 0.796875 Z M 17.65625 -26.78125 C 16.632812 -26.78125 15.664062 -26.578125 14.75 -26.171875 C 13.84375 -25.773438 13 -25.222656 12.21875 -24.515625 C 11.445312 -23.804688 10.78125 -22.960938 10.21875 -21.984375 C 9.664062 -21.003906 9.257812 -19.9375 9 -18.78125 L 25.84375 -18.78125 C 25.757812 -19.851562 25.515625 -20.875 25.109375 -21.84375 C 24.710938 -22.820312 24.160156 -23.675781 23.453125 -24.40625 C 22.742188 -25.144531 21.910156 -25.722656 20.953125 -26.140625 C 19.992188 -26.566406 18.894531 -26.78125 17.65625 -26.78125 Z M 17.65625 -26.78125 "/></g></g></g><g fill="#000000" fill-opacity="1"><g transform="translate(210.813563, 102.125751)"><g><path d="M 10.0625 0 L 3.59375 0 L 3.59375 -31.90625 L 8.734375 -31.90625 L 10.0625 -29.109375 C 11.125 -30.128906 12.410156 -30.972656 13.921875 -31.640625 C 15.429688 -32.304688 17.078125 -32.640625 18.859375 -32.640625 C 20.015625 -32.640625 21.320312 -32.460938 22.78125 -32.109375 C 24.25 -31.753906 25.613281 -31.085938 26.875 -30.109375 C 28.144531 -29.140625 29.210938 -27.785156 30.078125 -26.046875 C 30.941406 -24.316406 31.375 -22.078125 31.375 -19.328125 L 31.375 0 L 25.25 0 L 25.25 -19.390625 C 25.25 -20.765625 25.035156 -21.925781 24.609375 -22.875 C 24.191406 -23.832031 23.640625 -24.597656 22.953125 -25.171875 C 22.265625 -25.753906 21.488281 -26.164062 20.625 -26.40625 C 19.757812 -26.65625 18.859375 -26.78125 17.921875 -26.78125 C 17.210938 -26.78125 16.398438 -26.644531 15.484375 -26.375 C 14.578125 -26.113281 13.722656 -25.679688 12.921875 -25.078125 C 12.117188 -24.484375 11.441406 -23.726562 10.890625 -22.8125 C 10.335938 -21.90625 10.0625 -20.785156 10.0625 -19.453125 Z M 10.0625 0 "/></g></g></g><g fill="#000000" fill-opacity="1"><g transform="translate(246.394463, 102.125751)"><g><path d="M 35.25 -13.265625 C 35.25 -11.265625 34.847656 -9.40625 34.046875 -7.6875 C 33.242188 -5.976562 32.066406 -4.484375 30.515625 -3.203125 C 27.453125 -0.617188 23.519531 0.671875 18.71875 0.671875 C 14.988281 0.671875 11.613281 -0.09375 8.59375 -1.625 C 5.570312 -3.164062 3.351562 -5.222656 1.9375 -7.796875 L 7.859375 -10.859375 C 8.742188 -9.265625 10.148438 -8.03125 12.078125 -7.15625 C 14.015625 -6.289062 16.226562 -5.859375 18.71875 -5.859375 C 25.15625 -5.859375 28.375 -8.328125 28.375 -13.265625 C 28.375 -14.191406 28.207031 -14.988281 27.875 -15.65625 C 27.550781 -16.320312 27.054688 -16.941406 26.390625 -17.515625 C 24.785156 -18.847656 21.914062 -20.050781 17.78125 -21.125 C 15.300781 -21.738281 13.191406 -22.421875 11.453125 -23.171875 C 9.722656 -23.929688 8.28125 -24.820312 7.125 -25.84375 C 4.332031 -28.113281 2.9375 -31.113281 2.9375 -34.84375 C 2.9375 -36.707031 3.300781 -38.445312 4.03125 -40.0625 C 4.757812 -41.6875 5.789062 -43.101562 7.125 -44.3125 C 8.5 -45.507812 10.109375 -46.40625 11.953125 -47 C 13.796875 -47.601562 15.832031 -47.90625 18.0625 -47.90625 C 21.300781 -47.90625 24.285156 -47.28125 27.015625 -46.03125 C 29.742188 -44.789062 31.820312 -43.039062 33.25 -40.78125 L 27.84375 -37.4375 C 26.5625 -39 25.078125 -40.097656 23.390625 -40.734375 C 21.703125 -41.378906 19.925781 -41.703125 18.0625 -41.703125 C 16.726562 -41.703125 15.503906 -41.476562 14.390625 -41.03125 C 13.273438 -40.59375 12.34375 -40.0625 11.59375 -39.4375 C 10.96875 -38.90625 10.507812 -38.25 10.21875 -37.46875 C 9.9375 -36.695312 9.796875 -35.867188 9.796875 -34.984375 C 9.796875 -34.398438 9.882812 -33.804688 10.0625 -33.203125 C 10.238281 -32.609375 10.660156 -31.988281 11.328125 -31.34375 C 11.992188 -30.695312 12.96875 -30.070312 14.25 -29.46875 C 15.539062 -28.875 17.296875 -28.289062 19.515625 -27.71875 C 22.179688 -27.050781 24.425781 -26.328125 26.25 -25.546875 C 28.070312 -24.773438 29.601562 -23.851562 30.84375 -22.78125 C 33.78125 -20.382812 35.25 -17.210938 35.25 -13.265625 Z M 35.25 -13.265625 "/></g></g></g><g fill="#000000" fill-opacity="1"><g transform="translate(285.040383, 102.125751)"><g><path d="M 26.84375 -25.390625 L 43.703125 0 L 35.375 0 L 22.71875 -19.0625 L 10 0 L 1.671875 0 L 18.515625 -25.390625 L 4 -47.234375 L 12.328125 -47.234375 L 22.71875 -31.640625 L 33.046875 -47.234375 L 41.375 -47.234375 Z M 26.84375 -25.390625 "/></g></g></g></svg>