<svg xmlns="http://www.w3.org/2000/svg" xmlns:xlink="http://www.w3.org/1999/xlink" width="500" zoomAndPan="magnify" viewBox="0 0 375 149.999998" height="200" preserveAspectRatio="xMidYMid meet" version="1.2"><defs><filter x="0%" y="0%" width="100%" filterUnits="objectBoundingBox" id="24035910c4" height="100%"><feColorMatrix values="0 0 0 0 1 0 0 0 0 1 0 0 0 0 1 0 0 0 1 0" type="matrix" in="SourceGraphic"/></filter><clipPath id="89edd23c0c"><path d="M 0 0.332031 L 81.308594 0.332031 L 81.308594 71.371094 L 0 71.371094 Z M 0 0.332031 "/></clipPath><clipPath id="6bde10a846"><path d="M 40.59375 0.332031 L 81.1875 71.371094 L 0 71.371094 Z M 40.59375 0.332031 "/></clipPath><clipPath id="e6eacae6f3"><rect x="0" width="82" y="0" height="72"/></clipPath><clipPath id="d6c303747a"><path d="M 14.25 25.433594 L 95.558594 25.433594 L 95.558594 96.476562 L 14.25 96.476562 Z M 14.25 25.433594 "/></clipPath><clipPath id="9bf3c1c679"><path d="M 54.84375 25.433594 L 95.4375 96.476562 L 14.25 96.476562 Z M 54.84375 25.433594 "/></clipPath><clipPath id="7e7f06d127"><path d="M 14.25 25.433594 L 95.25 25.433594 L 95.25 96.308594 L 14.25 96.308594 Z M 14.25 25.433594 "/></clipPath><clipPath id="2027f2db25"><path d="M 54.75 25.433594 L 95.25 96.308594 L 14.25 96.308594 Z M 54.75 25.433594 "/></clipPath><clipPath id="4a4af4160a"><path d="M 29.9375 17.539062 L 111.246094 17.539062 L 111.246094 88.578125 L 29.9375 88.578125 Z M 29.9375 17.539062 "/></clipPath><clipPath id="4c80ee748d"><path d="M 70.535156 17.539062 L 111.128906 88.578125 L 29.9375 88.578125 Z M 70.535156 17.539062 "/></clipPath></defs><g id="3b2b6460e0"><g mask="url(#92831e4cfc)" transform="matrix(1,0,0,1,0,33)"><g clip-path="url(#e6eacae6f3)"><g clip-rule="nonzero" clip-path="url(#89edd23c0c)"><g clip-rule="nonzero" clip-path="url(#6bde10a846)"><path style=" stroke:none;fill-rule:nonzero;fill:#000000;fill-opacity:1;" d="M 0 0.332031 L 81.308594 0.332031 L 81.308594 71.371094 L 0 71.371094 Z M 0 0.332031 "/></g></g></g><mask id="92831e4cfc"><g filter="url(#24035910c4)"><rect x="0" width="375" y="0" height="149.999998" style="fill:#000000;fill-opacity:0.9;stroke:none;"/></g></mask></g><g clip-rule="nonzero" clip-path="url(#d6c303747a)"><g clip-rule="nonzero" clip-path="url(#9bf3c1c679)"><path style=" stroke:none;fill-rule:nonzero;fill:#ffffff;fill-opacity:1;" d="M 14.25 25.433594 L 95.558594 25.433594 L 95.558594 96.476562 L 14.25 96.476562 Z M 14.25 25.433594 "/></g></g><g clip-rule="nonzero" clip-path="url(#7e7f06d127)"><g clip-rule="nonzero" clip-path="url(#2027f2db25)"><path style="fill:none;stroke-width:32;stroke-linecap:butt;stroke-linejoin:miter;stroke:#ffffff;stroke-opacity:1;stroke-miterlimit:4;" d="M 54.125002 -0.0017961 L 108.250007 94.716963 L -0.00000306541 94.716963 Z M 54.125002 -0.0017961 " transform="matrix(0.748268,0,0,0.748268,14.250002,25.434938)"/></g></g><g clip-rule="nonzero" clip-path="url(#4a4af4160a)"><g clip-rule="nonzero" clip-path="url(#4c80ee748d)"><path style=" stroke:none;fill-rule:nonzero;fill:#ffde59;fill-opacity:1;" d="M 29.9375 17.539062 L 111.246094 17.539062 L 111.246094 88.578125 L 29.9375 88.578125 Z M 29.9375 17.539062 "/></g></g><g style="fill:#000000;fill-opacity:1;"><g transform="translate(124.788613, 87.204949)"><path style="stroke:none" d="M 33.3125 1.140625 C 29.082031 1.140625 25.171875 0.492188 21.578125 -0.796875 C 17.984375 -2.085938 14.835938 -3.941406 12.140625 -6.359375 C 9.441406 -8.773438 7.34375 -11.679688 5.84375 -15.078125 C 4.351562 -18.472656 3.609375 -22.285156 3.609375 -26.515625 C 3.609375 -30.722656 4.328125 -34.53125 5.765625 -37.9375 C 7.210938 -41.34375 9.234375 -44.265625 11.828125 -46.703125 C 14.429688 -49.148438 17.484375 -51.03125 20.984375 -52.34375 C 24.492188 -53.664062 28.328125 -54.328125 32.484375 -54.328125 C 34.410156 -54.328125 36.359375 -54.175781 38.328125 -53.875 C 40.304688 -53.570312 42.25 -53.070312 44.15625 -52.375 C 46.070312 -51.675781 47.894531 -50.734375 49.625 -49.546875 L 45.890625 -42.859375 C 43.960938 -44.066406 41.878906 -44.972656 39.640625 -45.578125 C 37.398438 -46.191406 35.09375 -46.5 32.71875 -46.5 C 29.625 -46.5 26.820312 -46.035156 24.3125 -45.109375 C 21.800781 -44.191406 19.660156 -42.863281 17.890625 -41.125 C 16.117188 -39.394531 14.757812 -37.300781 13.8125 -34.84375 C 12.863281 -32.382812 12.390625 -29.625 12.390625 -26.5625 C 12.390625 -22.25 13.300781 -18.585938 15.125 -15.578125 C 16.945312 -12.566406 19.457031 -10.28125 22.65625 -8.71875 C 25.863281 -7.15625 29.554688 -6.375 33.734375 -6.375 C 35.785156 -6.375 37.632812 -6.570312 39.28125 -6.96875 C 40.925781 -7.363281 42.253906 -7.8125 43.265625 -8.3125 L 43.265625 -21.15625 L 31.1875 -21.15625 L 31.1875 -28.234375 L 50.90625 -28.234375 L 50.90625 -3.375 C 49.507812 -2.4375 47.765625 -1.625 45.671875 -0.9375 C 43.585938 -0.257812 41.4375 0.253906 39.21875 0.609375 C 37.007812 0.960938 35.039062 1.140625 33.3125 1.140625 Z M 33.3125 1.140625 "/></g></g><g style="fill:#000000;fill-opacity:1;"><g transform="translate(181.844091, 87.204949)"><path style="stroke:none" d="M 22.984375 1.140625 C 18.929688 1.140625 15.375 0.3125 12.3125 -1.34375 C 9.25 -3.007812 6.859375 -5.332031 5.140625 -8.3125 C 3.429688 -11.300781 2.578125 -14.773438 2.578125 -18.734375 C 2.578125 -21.617188 3.070312 -24.28125 4.0625 -26.71875 C 5.050781 -29.164062 6.441406 -31.285156 8.234375 -33.078125 C 10.035156 -34.878906 12.144531 -36.273438 14.5625 -37.265625 C 16.988281 -38.253906 19.628906 -38.75 22.484375 -38.75 C 25.609375 -38.75 28.382812 -38.195312 30.8125 -37.09375 C 33.238281 -36 35.253906 -34.460938 36.859375 -32.484375 C 38.472656 -30.503906 39.613281 -28.191406 40.28125 -25.546875 C 40.957031 -22.898438 41.066406 -20.03125 40.609375 -16.9375 L 10.59375 -16.9375 C 10.550781 -14.6875 11.046875 -12.71875 12.078125 -11.03125 C 13.117188 -9.351562 14.609375 -8.046875 16.546875 -7.109375 C 18.484375 -6.171875 20.769531 -5.703125 23.40625 -5.703125 C 25.53125 -5.703125 27.585938 -6.023438 29.578125 -6.671875 C 31.566406 -7.316406 33.367188 -8.269531 34.984375 -9.53125 L 38.21875 -3.53125 C 37 -2.539062 35.53125 -1.695312 33.8125 -1 C 32.09375 -0.3125 30.296875 0.210938 28.421875 0.578125 C 26.546875 0.953125 24.734375 1.140625 22.984375 1.140625 Z M 11.09375 -23.09375 L 32.40625 -23.09375 C 32.332031 -25.9375 31.425781 -28.164062 29.6875 -29.78125 C 27.957031 -31.40625 25.492188 -32.21875 22.296875 -32.21875 C 19.210938 -32.21875 16.648438 -31.40625 14.609375 -29.78125 C 12.566406 -28.164062 11.394531 -25.9375 11.09375 -23.09375 Z M 11.09375 -23.09375 "/></g></g><g style="fill:#000000;fill-opacity:1;"><g transform="translate(225.338446, 87.204949)"><path style="stroke:none" d="M 5.8125 0 L 5.8125 -37.609375 L 14.171875 -37.609375 L 14.171875 -32.828125 C 15.742188 -34.929688 17.566406 -36.441406 19.640625 -37.359375 C 21.710938 -38.285156 23.863281 -38.75 26.09375 -38.75 C 29.539062 -38.75 32.390625 -38.066406 34.640625 -36.703125 C 36.898438 -35.335938 38.578125 -33.578125 39.671875 -31.421875 C 40.773438 -29.265625 41.328125 -27.046875 41.328125 -24.765625 L 41.328125 0 L 32.984375 0 L 32.984375 -22.1875 C 32.984375 -24.875 32.175781 -27.023438 30.5625 -28.640625 C 28.957031 -30.265625 26.722656 -31.078125 23.859375 -31.078125 C 21.984375 -31.078125 20.316406 -30.65625 18.859375 -29.8125 C 17.398438 -28.976562 16.253906 -27.820312 15.421875 -26.34375 C 14.585938 -24.863281 14.171875 -23.132812 14.171875 -21.15625 L 14.171875 0 Z M 5.8125 0 "/></g></g><g style="fill:#000000;fill-opacity:1;"><g transform="translate(272.099621, 87.204949)"><path style="stroke:none" d="M 24.234375 1.140625 C 20.566406 1.140625 16.976562 0.613281 13.46875 -0.4375 C 9.957031 -1.488281 7 -3.003906 4.59375 -4.984375 L 8.78125 -11.46875 C 10.039062 -10.382812 11.515625 -9.445312 13.203125 -8.65625 C 14.890625 -7.875 16.679688 -7.273438 18.578125 -6.859375 C 20.472656 -6.441406 22.375 -6.234375 24.28125 -6.234375 C 27.75 -6.234375 30.550781 -6.890625 32.6875 -8.203125 C 34.832031 -9.523438 35.90625 -11.453125 35.90625 -13.984375 C 35.90625 -15.878906 35.175781 -17.484375 33.71875 -18.796875 C 32.257812 -20.117188 29.566406 -21.335938 25.640625 -22.453125 L 20.171875 -24.046875 C 15.160156 -25.492188 11.507812 -27.40625 9.21875 -29.78125 C 6.925781 -32.164062 5.78125 -35.128906 5.78125 -38.671875 C 5.78125 -41.023438 6.253906 -43.148438 7.203125 -45.046875 C 8.148438 -46.953125 9.488281 -48.601562 11.21875 -50 C 12.957031 -51.394531 15.003906 -52.457031 17.359375 -53.1875 C 19.710938 -53.925781 22.296875 -54.296875 25.109375 -54.296875 C 28.679688 -54.296875 32 -53.773438 35.0625 -52.734375 C 38.125 -51.691406 40.660156 -50.296875 42.671875 -48.546875 L 38.328125 -42.25 C 37.242188 -43.238281 35.972656 -44.085938 34.515625 -44.796875 C 33.054688 -45.503906 31.488281 -46.046875 29.8125 -46.421875 C 28.144531 -46.804688 26.453125 -47 24.734375 -47 C 22.609375 -47 20.726562 -46.6875 19.09375 -46.0625 C 17.457031 -45.445312 16.179688 -44.554688 15.265625 -43.390625 C 14.359375 -42.222656 13.90625 -40.800781 13.90625 -39.125 C 13.90625 -37.914062 14.207031 -36.851562 14.8125 -35.9375 C 15.425781 -35.03125 16.472656 -34.203125 17.953125 -33.453125 C 19.429688 -32.703125 21.476562 -31.945312 24.09375 -31.1875 L 29.859375 -29.484375 C 34.773438 -28.035156 38.375 -26.148438 40.65625 -23.828125 C 42.9375 -21.515625 44.078125 -18.507812 44.078125 -14.8125 C 44.078125 -11.644531 43.296875 -8.863281 41.734375 -6.46875 C 40.171875 -4.082031 37.90625 -2.21875 34.9375 -0.875 C 31.976562 0.46875 28.410156 1.140625 24.234375 1.140625 Z M 24.234375 1.140625 "/></g></g><g style="fill:#000000;fill-opacity:1;"><g transform="translate(319.81046, 87.204949)"><path style="stroke:none" d="M 2.015625 0 L 19.265625 -27.28125 L 2.921875 -53.1875 L 13.109375 -53.1875 L 25.375 -33.546875 L 38.484375 -53.1875 L 48.359375 -53.1875 L 31.1875 -27.046875 L 48.859375 0 L 38.640625 0 L 25.03125 -20.9375 L 11.921875 0 Z M 2.015625 0 "/></g></g><g style="fill:#ab8900;fill-opacity:1;"><g transform="translate(162.466251, 127.527804)"><path style="stroke:none" d="M 2.203125 0 L 2.203125 -16.96875 L 8.34375 -16.96875 C 9.550781 -16.96875 10.613281 -16.757812 11.53125 -16.34375 C 12.457031 -15.925781 13.179688 -15.328125 13.703125 -14.546875 C 14.234375 -13.765625 14.5 -12.828125 14.5 -11.734375 C 14.5 -10.617188 14.253906 -9.675781 13.765625 -8.90625 C 13.285156 -8.132812 12.582031 -7.546875 11.65625 -7.140625 C 10.738281 -6.742188 9.613281 -6.546875 8.28125 -6.546875 L 4.921875 -6.546875 L 4.921875 0 Z M 4.921875 -8.875 L 8.328125 -8.875 C 9.421875 -8.875 10.269531 -9.101562 10.875 -9.5625 C 11.488281 -10.03125 11.796875 -10.738281 11.796875 -11.6875 C 11.796875 -12.625 11.484375 -13.34375 10.859375 -13.84375 C 10.234375 -14.34375 9.394531 -14.59375 8.34375 -14.59375 L 4.921875 -14.59375 Z M 4.921875 -8.875 "/></g></g><g style="fill:#ab8900;fill-opacity:1;"><g transform="translate(177.817425, 127.527804)"><path style="stroke:none" d="M 10.078125 0.359375 C 8.804688 0.359375 7.625 0.132812 6.53125 -0.3125 C 5.445312 -0.757812 4.503906 -1.378906 3.703125 -2.171875 C 2.898438 -2.972656 2.273438 -3.910156 1.828125 -4.984375 C 1.378906 -6.066406 1.15625 -7.234375 1.15625 -8.484375 C 1.15625 -9.742188 1.378906 -10.910156 1.828125 -11.984375 C 2.273438 -13.054688 2.898438 -13.992188 3.703125 -14.796875 C 4.503906 -15.597656 5.445312 -16.21875 6.53125 -16.65625 C 7.625 -17.101562 8.804688 -17.328125 10.078125 -17.328125 C 11.347656 -17.328125 12.523438 -17.097656 13.609375 -16.640625 C 14.691406 -16.191406 15.632812 -15.5625 16.4375 -14.75 C 17.25 -13.945312 17.878906 -13.007812 18.328125 -11.9375 C 18.773438 -10.863281 19 -9.710938 19 -8.484375 C 19 -7.234375 18.773438 -6.066406 18.328125 -4.984375 C 17.878906 -3.910156 17.25 -2.972656 16.4375 -2.171875 C 15.632812 -1.378906 14.691406 -0.757812 13.609375 -0.3125 C 12.523438 0.132812 11.347656 0.359375 10.078125 0.359375 Z M 10.078125 -2.203125 C 10.929688 -2.203125 11.726562 -2.347656 12.46875 -2.640625 C 13.207031 -2.941406 13.851562 -3.367188 14.40625 -3.921875 C 14.957031 -4.472656 15.390625 -5.132812 15.703125 -5.90625 C 16.015625 -6.675781 16.171875 -7.535156 16.171875 -8.484375 C 16.171875 -9.753906 15.898438 -10.859375 15.359375 -11.796875 C 14.816406 -12.734375 14.085938 -13.460938 13.171875 -13.984375 C 12.253906 -14.503906 11.222656 -14.765625 10.078125 -14.765625 C 9.222656 -14.765625 8.425781 -14.613281 7.6875 -14.3125 C 6.945312 -14.019531 6.300781 -13.597656 5.75 -13.046875 C 5.195312 -12.492188 4.765625 -11.832031 4.453125 -11.0625 C 4.140625 -10.289062 3.984375 -9.429688 3.984375 -8.484375 C 3.984375 -7.210938 4.253906 -6.101562 4.796875 -5.15625 C 5.335938 -4.21875 6.066406 -3.488281 6.984375 -2.96875 C 7.898438 -2.457031 8.929688 -2.203125 10.078125 -2.203125 Z M 10.078125 -2.203125 "/></g></g><g style="fill:#ab8900;fill-opacity:1;"><g transform="translate(197.966587, 127.527804)"><path style="stroke:none" d="M 5.671875 0 L 0.5625 -16.96875 L 3.40625 -16.96875 L 7.09375 -3.765625 L 10.984375 -16.96875 L 13.796875 -16.96875 L 17.65625 -3.78125 L 21.34375 -16.96875 L 24.109375 -16.96875 L 19.03125 0 L 16.15625 0 L 12.359375 -12.890625 L 8.53125 0 Z M 5.671875 0 "/></g></g><g style="fill:#ab8900;fill-opacity:1;"><g transform="translate(222.6472, 127.527804)"><path style="stroke:none" d="M 2.203125 0 L 2.203125 -16.96875 L 13.171875 -16.96875 L 13.171875 -14.5625 L 4.921875 -14.5625 L 4.921875 -9.984375 L 12.046875 -9.984375 L 12.046875 -7.71875 L 4.921875 -7.71875 L 4.921875 -2.421875 L 13.25 -2.421875 L 13.25 0 Z M 2.203125 0 "/></g></g><g style="fill:#ab8900;fill-opacity:1;"><g transform="translate(237.489496, 127.527804)"><path style="stroke:none" d="M 2.203125 0 L 2.203125 -16.96875 L 8.609375 -16.96875 C 9.796875 -16.96875 10.816406 -16.757812 11.671875 -16.34375 C 12.535156 -15.9375 13.203125 -15.359375 13.671875 -14.609375 C 14.148438 -13.859375 14.390625 -12.96875 14.390625 -11.9375 C 14.390625 -11.09375 14.207031 -10.347656 13.84375 -9.703125 C 13.476562 -9.054688 12.972656 -8.523438 12.328125 -8.109375 C 11.679688 -7.691406 10.9375 -7.410156 10.09375 -7.265625 L 15.203125 0 L 11.921875 0 L 7.234375 -6.84375 L 4.921875 -6.84375 L 4.921875 0 Z M 4.921875 -9.09375 L 8.171875 -9.09375 C 9.265625 -9.09375 10.113281 -9.328125 10.71875 -9.796875 C 11.332031 -10.265625 11.640625 -10.9375 11.640625 -11.8125 C 11.640625 -12.707031 11.367188 -13.40625 10.828125 -13.90625 C 10.285156 -14.40625 9.460938 -14.65625 8.359375 -14.65625 L 4.921875 -14.65625 Z M 4.921875 -9.09375 "/></g></g><g style="fill:#ab8900;fill-opacity:1;"><g transform="translate(253.59187, 127.527804)"><path style="stroke:none" d="M 2.203125 0 L 2.203125 -16.96875 L 13.171875 -16.96875 L 13.171875 -14.5625 L 4.921875 -14.5625 L 4.921875 -9.984375 L 12.046875 -9.984375 L 12.046875 -7.71875 L 4.921875 -7.71875 L 4.921875 -2.421875 L 13.25 -2.421875 L 13.25 0 Z M 2.203125 0 "/></g></g><g style="fill:#ab8900;fill-opacity:1;"><g transform="translate(268.434165, 127.527804)"><path style="stroke:none" d="M 2.203125 0 L 2.203125 -16.96875 L 7.515625 -16.96875 C 9.203125 -16.96875 10.691406 -16.601562 11.984375 -15.875 C 13.273438 -15.15625 14.285156 -14.15625 15.015625 -12.875 C 15.742188 -11.601562 16.109375 -10.132812 16.109375 -8.46875 C 16.109375 -7.226562 15.898438 -6.085938 15.484375 -5.046875 C 15.078125 -4.015625 14.488281 -3.125 13.71875 -2.375 C 12.945312 -1.625 12.035156 -1.039062 10.984375 -0.625 C 9.941406 -0.207031 8.785156 0 7.515625 0 Z M 4.921875 -2.53125 L 7.1875 -2.53125 C 8.101562 -2.53125 8.929688 -2.664062 9.671875 -2.9375 C 10.421875 -3.207031 11.0625 -3.597656 11.59375 -4.109375 C 12.132812 -4.628906 12.550781 -5.253906 12.84375 -5.984375 C 13.132812 -6.722656 13.28125 -7.550781 13.28125 -8.46875 C 13.28125 -9.707031 13.023438 -10.769531 12.515625 -11.65625 C 12.015625 -12.550781 11.304688 -13.238281 10.390625 -13.71875 C 9.484375 -14.195312 8.414062 -14.4375 7.1875 -14.4375 L 4.921875 -14.4375 Z M 4.921875 -2.53125 "/></g></g><g style="fill:#ab8900;fill-opacity:1;"><g transform="translate(285.69968, 127.527804)"><path style="stroke:none" d=""/></g></g><g style="fill:#ab8900;fill-opacity:1;"><g transform="translate(291.636594, 127.527804)"><path style="stroke:none" d="M 2.203125 0 L 2.203125 -16.96875 L 8.03125 -16.96875 C 9.65625 -16.96875 10.96875 -16.601562 11.96875 -15.875 C 12.96875 -15.15625 13.46875 -14.09375 13.46875 -12.6875 C 13.46875 -12.144531 13.335938 -11.632812 13.078125 -11.15625 C 12.828125 -10.675781 12.5 -10.253906 12.09375 -9.890625 C 11.695312 -9.523438 11.28125 -9.257812 10.84375 -9.09375 C 11.757812 -8.800781 12.523438 -8.28125 13.140625 -7.53125 C 13.765625 -6.78125 14.078125 -5.859375 14.078125 -4.765625 C 14.078125 -3.835938 13.84375 -3.015625 13.375 -2.296875 C 12.90625 -1.578125 12.238281 -1.015625 11.375 -0.609375 C 10.507812 -0.203125 9.484375 0 8.296875 0 Z M 4.921875 -2.125 L 7.84375 -2.125 C 9 -2.125 9.859375 -2.351562 10.421875 -2.8125 C 10.992188 -3.269531 11.28125 -3.960938 11.28125 -4.890625 C 11.28125 -5.796875 10.992188 -6.488281 10.421875 -6.96875 C 9.859375 -7.445312 8.984375 -7.6875 7.796875 -7.6875 L 4.921875 -7.6875 Z M 4.921875 -9.71875 L 7.609375 -9.71875 C 8.265625 -9.71875 8.828125 -9.820312 9.296875 -10.03125 C 9.773438 -10.238281 10.148438 -10.539062 10.421875 -10.9375 C 10.691406 -11.332031 10.828125 -11.8125 10.828125 -12.375 C 10.828125 -13.164062 10.546875 -13.769531 9.984375 -14.1875 C 9.421875 -14.613281 8.617188 -14.828125 7.578125 -14.828125 L 4.921875 -14.828125 Z M 4.921875 -9.71875 "/></g></g><g style="fill:#ab8900;fill-opacity:1;"><g transform="translate(306.999885, 127.527804)"><path style="stroke:none" d="M 6.140625 0 L 6.140625 -7.328125 L 0.15625 -16.96875 L 3.265625 -16.96875 L 7.5625 -9.953125 L 11.84375 -16.96875 L 14.859375 -16.96875 L 8.875 -7.3125 L 8.875 0 Z M 6.140625 0 "/></g></g></g></svg>