<svg xmlns="http://www.w3.org/2000/svg" xmlns:xlink="http://www.w3.org/1999/xlink" width="500" zoomAndPan="magnify" viewBox="0 0 375 149.999998" height="200" preserveAspectRatio="xMidYMid meet" version="1.2"><defs><filter x="0%" y="0%" width="100%" filterUnits="objectBoundingBox" id="fd514a3576" height="100%"><feColorMatrix values="0 0 0 0 1 0 0 0 0 1 0 0 0 0 1 0 0 0 1 0" type="matrix" in="SourceGraphic"/></filter><clipPath id="5ab9e8d5b0"><path d="M 0.238281 0.941406 L 62.796875 0.941406 L 62.796875 55.597656 L 0.238281 55.597656 Z M 0.238281 0.941406 "/></clipPath><clipPath id="bbe2e8f767"><path d="M 31.46875 0.941406 L 62.703125 55.597656 L 0.238281 55.597656 Z M 31.46875 0.941406 "/></clipPath><clipPath id="54c210aefc"><rect x="0" width="63" y="0" height="56"/></clipPath><clipPath id="41ed3789e0"><path d="M 54.199219 36.863281 L 116.757812 36.863281 L 116.757812 91.523438 L 54.199219 91.523438 Z M 54.199219 36.863281 "/></clipPath><clipPath id="ea83e11e87"><path d="M 85.433594 36.863281 L 116.667969 91.523438 L 54.199219 91.523438 Z M 85.433594 36.863281 "/></clipPath><clipPath id="ceb347eea4"><path d="M 54.199219 36.867188 L 116.449219 36.867188 L 116.449219 91.335938 L 54.199219 91.335938 Z M 54.199219 36.867188 "/></clipPath><clipPath id="5e52622243"><path d="M 85.324219 36.867188 L 116.449219 91.335938 L 54.199219 91.335938 Z M 85.324219 36.867188 "/></clipPath><clipPath id="9fee4384c8"><path d="M 66.273438 30.789062 L 128.832031 30.789062 L 128.832031 85.445312 L 66.273438 85.445312 Z M 66.273438 30.789062 "/></clipPath><clipPath id="70ffd305f7"><path d="M 97.503906 30.789062 L 128.738281 85.445312 L 66.273438 85.445312 Z M 97.503906 30.789062 "/></clipPath></defs><g id="c34be0a3a8"><g mask="url(#5e760824b2)" transform="matrix(1,0,0,1,43,42)"><g clip-path="url(#54c210aefc)"><g clip-rule="nonzero" clip-path="url(#5ab9e8d5b0)"><g clip-rule="nonzero" clip-path="url(#bbe2e8f767)"><path style=" stroke:none;fill-rule:nonzero;fill:#000000;fill-opacity:1;" d="M 0.238281 0.941406 L 62.796875 0.941406 L 62.796875 55.597656 L 0.238281 55.597656 Z M 0.238281 0.941406 "/></g></g></g><mask id="5e760824b2"><g filter="url(#fd514a3576)"><rect x="0" width="375" y="0" height="149.999998" style="fill:#000000;fill-opacity:0.9;stroke:none;"/></g></mask></g><g clip-rule="nonzero" clip-path="url(#41ed3789e0)"><g clip-rule="nonzero" clip-path="url(#ea83e11e87)"><path style=" stroke:none;fill-rule:nonzero;fill:#ffffff;fill-opacity:1;" d="M 54.199219 36.863281 L 116.757812 36.863281 L 116.757812 91.523438 L 54.199219 91.523438 Z M 54.199219 36.863281 "/></g></g><g clip-rule="nonzero" clip-path="url(#ceb347eea4)"><g clip-rule="nonzero" clip-path="url(#5e52622243)"><path style="fill:none;stroke-width:32;stroke-linecap:butt;stroke-linejoin:miter;stroke:#ffffff;stroke-opacity:1;stroke-miterlimit:4;" d="M 41.638121 0.00158772 L 83.278748 72.872684 L -0.00250501 72.872684 Z M 41.638121 0.00158772 " transform="matrix(0.747467,0,0,0.747467,54.201091,36.866001)"/></g></g><g clip-rule="nonzero" clip-path="url(#9fee4384c8)"><g clip-rule="nonzero" clip-path="url(#70ffd305f7)"><path style=" stroke:none;fill-rule:nonzero;fill:#ffde59;fill-opacity:1;" d="M 66.273438 30.789062 L 128.832031 30.789062 L 128.832031 85.445312 L 66.273438 85.445312 Z M 66.273438 30.789062 "/></g></g><g style="fill:#000000;fill-opacity:1;"><g transform="translate(139.249734, 84.39051)"><path style="stroke:none" d="M 25.640625 0.875 C 22.378906 0.875 19.363281 0.378906 16.59375 -0.609375 C 13.832031 -1.609375 11.414062 -3.035156 9.34375 -4.890625 C 7.269531 -6.753906 5.65625 -8.992188 4.5 -11.609375 C 3.351562 -14.222656 2.78125 -17.15625 2.78125 -20.40625 C 2.78125 -23.644531 3.332031 -26.570312 4.4375 -29.1875 C 5.550781 -31.8125 7.109375 -34.0625 9.109375 -35.9375 C 11.109375 -37.820312 13.457031 -39.269531 16.15625 -40.28125 C 18.851562 -41.300781 21.800781 -41.8125 25 -41.8125 C 26.476562 -41.8125 27.976562 -41.691406 29.5 -41.453125 C 31.019531 -41.222656 32.515625 -40.835938 33.984375 -40.296875 C 35.453125 -39.765625 36.851562 -39.039062 38.1875 -38.125 L 35.3125 -32.96875 C 33.832031 -33.90625 32.226562 -34.609375 30.5 -35.078125 C 28.78125 -35.546875 27.003906 -35.78125 25.171875 -35.78125 C 22.796875 -35.78125 20.640625 -35.425781 18.703125 -34.71875 C 16.773438 -34.007812 15.128906 -32.984375 13.765625 -31.640625 C 12.398438 -30.304688 11.351562 -28.691406 10.625 -26.796875 C 9.894531 -24.910156 9.53125 -22.789062 9.53125 -20.4375 C 9.53125 -17.125 10.226562 -14.304688 11.625 -11.984375 C 13.03125 -9.660156 14.96875 -7.898438 17.4375 -6.703125 C 19.90625 -5.503906 22.742188 -4.90625 25.953125 -4.90625 C 27.535156 -4.90625 28.957031 -5.054688 30.21875 -5.359375 C 31.488281 -5.660156 32.515625 -6.007812 33.296875 -6.40625 L 33.296875 -16.28125 L 24 -16.28125 L 24 -21.71875 L 39.171875 -21.71875 L 39.171875 -2.609375 C 38.097656 -1.878906 36.757812 -1.25 35.15625 -0.71875 C 33.550781 -0.195312 31.894531 0.195312 30.1875 0.46875 C 28.476562 0.738281 26.960938 0.875 25.640625 0.875 Z M 25.640625 0.875 "/></g></g><g style="fill:#000000;fill-opacity:1;"><g transform="translate(183.148337, 84.39051)"><path style="stroke:none" d="M 17.6875 0.875 C 14.570312 0.875 11.832031 0.238281 9.46875 -1.03125 C 7.113281 -2.3125 5.273438 -4.101562 3.953125 -6.40625 C 2.640625 -8.707031 1.984375 -11.375 1.984375 -14.40625 C 1.984375 -16.632812 2.363281 -18.6875 3.125 -20.5625 C 3.882812 -22.445312 4.957031 -24.078125 6.34375 -25.453125 C 7.726562 -26.835938 9.347656 -27.910156 11.203125 -28.671875 C 13.066406 -29.429688 15.101562 -29.8125 17.3125 -29.8125 C 19.707031 -29.8125 21.835938 -29.390625 23.703125 -28.546875 C 25.578125 -27.703125 27.132812 -26.519531 28.375 -25 C 29.613281 -23.476562 30.488281 -21.695312 31 -19.65625 C 31.519531 -17.625 31.601562 -15.414062 31.25 -13.03125 L 8.15625 -13.03125 C 8.113281 -11.300781 8.492188 -9.785156 9.296875 -8.484375 C 10.097656 -7.191406 11.242188 -6.1875 12.734375 -5.46875 C 14.222656 -4.75 15.984375 -4.390625 18.015625 -4.390625 C 19.648438 -4.390625 21.226562 -4.632812 22.75 -5.125 C 24.28125 -5.625 25.671875 -6.363281 26.921875 -7.34375 L 29.40625 -2.71875 C 28.46875 -1.957031 27.335938 -1.304688 26.015625 -0.765625 C 24.691406 -0.234375 23.304688 0.171875 21.859375 0.453125 C 20.421875 0.734375 19.03125 0.875 17.6875 0.875 Z M 8.53125 -17.78125 L 24.9375 -17.78125 C 24.875 -19.957031 24.175781 -21.671875 22.84375 -22.921875 C 21.507812 -24.171875 19.613281 -24.796875 17.15625 -24.796875 C 14.78125 -24.796875 12.804688 -24.171875 11.234375 -22.921875 C 9.671875 -21.671875 8.769531 -19.957031 8.53125 -17.78125 Z M 8.53125 -17.78125 "/></g></g><g style="fill:#000000;fill-opacity:1;"><g transform="translate(216.612985, 84.39051)"><path style="stroke:none" d="M 4.46875 0 L 4.46875 -28.9375 L 10.90625 -28.9375 L 10.90625 -25.265625 C 12.113281 -26.878906 13.515625 -28.039062 15.109375 -28.75 C 16.710938 -29.457031 18.367188 -29.8125 20.078125 -29.8125 C 22.734375 -29.8125 24.925781 -29.285156 26.65625 -28.234375 C 28.394531 -27.179688 29.6875 -25.828125 30.53125 -24.171875 C 31.382812 -22.515625 31.8125 -20.8125 31.8125 -19.0625 L 31.8125 0 L 25.375 0 L 25.375 -17.078125 C 25.375 -19.140625 24.753906 -20.789062 23.515625 -22.03125 C 22.273438 -23.28125 20.554688 -23.90625 18.359375 -23.90625 C 16.921875 -23.90625 15.640625 -23.582031 14.515625 -22.9375 C 13.390625 -22.300781 12.503906 -21.410156 11.859375 -20.265625 C 11.222656 -19.128906 10.90625 -17.800781 10.90625 -16.28125 L 10.90625 0 Z M 4.46875 0 "/></g></g><g style="fill:#000000;fill-opacity:1;"><g transform="translate(252.591129, 84.39051)"><path style="stroke:none" d="M 18.65625 0.875 C 15.820312 0.875 13.054688 0.472656 10.359375 -0.328125 C 7.660156 -1.140625 5.382812 -2.304688 3.53125 -3.828125 L 6.75 -8.828125 C 7.726562 -7.992188 8.863281 -7.273438 10.15625 -6.671875 C 11.457031 -6.066406 12.835938 -5.601562 14.296875 -5.28125 C 15.753906 -4.957031 17.21875 -4.796875 18.6875 -4.796875 C 21.351562 -4.796875 23.507812 -5.300781 25.15625 -6.3125 C 26.800781 -7.320312 27.625 -8.804688 27.625 -10.765625 C 27.625 -12.222656 27.0625 -13.457031 25.9375 -14.46875 C 24.820312 -15.476562 22.753906 -16.414062 19.734375 -17.28125 L 15.53125 -18.5 C 11.664062 -19.613281 8.847656 -21.085938 7.078125 -22.921875 C 5.316406 -24.753906 4.4375 -27.035156 4.4375 -29.765625 C 4.4375 -31.578125 4.800781 -33.210938 5.53125 -34.671875 C 6.269531 -36.128906 7.304688 -37.394531 8.640625 -38.46875 C 9.972656 -39.539062 11.546875 -40.359375 13.359375 -40.921875 C 15.171875 -41.492188 17.160156 -41.78125 19.328125 -41.78125 C 22.078125 -41.78125 24.628906 -41.378906 26.984375 -40.578125 C 29.335938 -39.773438 31.285156 -38.703125 32.828125 -37.359375 L 29.5 -32.515625 C 28.65625 -33.273438 27.671875 -33.925781 26.546875 -34.46875 C 25.429688 -35.007812 24.226562 -35.425781 22.9375 -35.71875 C 21.65625 -36.007812 20.351562 -36.15625 19.03125 -36.15625 C 17.394531 -36.15625 15.945312 -35.914062 14.6875 -35.4375 C 13.425781 -34.96875 12.445312 -34.285156 11.75 -33.390625 C 11.050781 -32.492188 10.703125 -31.398438 10.703125 -30.109375 C 10.703125 -29.171875 10.9375 -28.351562 11.40625 -27.65625 C 11.875 -26.957031 12.675781 -26.316406 13.8125 -25.734375 C 14.957031 -25.160156 16.53125 -24.582031 18.53125 -24 L 22.984375 -22.6875 C 26.765625 -21.570312 29.53125 -20.125 31.28125 -18.34375 C 33.03125 -16.5625 33.90625 -14.25 33.90625 -11.40625 C 33.90625 -8.96875 33.304688 -6.828125 32.109375 -4.984375 C 30.910156 -3.140625 29.171875 -1.703125 26.890625 -0.671875 C 24.609375 0.359375 21.863281 0.875 18.65625 0.875 Z M 18.65625 0.875 "/></g></g><g style="fill:#000000;fill-opacity:1;"><g transform="translate(289.299948, 84.39051)"><path style="stroke:none" d="M 1.546875 0 L 14.828125 -20.984375 L 2.25 -40.921875 L 10.078125 -40.921875 L 19.53125 -25.8125 L 29.609375 -40.921875 L 37.21875 -40.921875 L 24 -20.8125 L 37.59375 0 L 29.734375 0 L 19.265625 -16.109375 L 9.171875 0 Z M 1.546875 0 "/></g></g><g style="fill:#e1b500;fill-opacity:1;"><g transform="translate(168.238979, 115.414997)"><path style="stroke:none" d="M 1.703125 0 L 1.703125 -13.046875 L 6.421875 -13.046875 C 7.347656 -13.046875 8.164062 -12.882812 8.875 -12.5625 C 9.582031 -12.25 10.140625 -11.789062 10.546875 -11.1875 C 10.953125 -10.59375 11.15625 -9.875 11.15625 -9.03125 C 11.15625 -8.164062 10.96875 -7.4375 10.59375 -6.84375 C 10.21875 -6.25 9.675781 -5.796875 8.96875 -5.484375 C 8.257812 -5.179688 7.394531 -5.03125 6.375 -5.03125 L 3.78125 -5.03125 L 3.78125 0 Z M 3.78125 -6.828125 L 6.40625 -6.828125 C 7.25 -6.828125 7.898438 -7.003906 8.359375 -7.359375 C 8.828125 -7.710938 9.0625 -8.253906 9.0625 -8.984375 C 9.0625 -9.703125 8.820312 -10.253906 8.34375 -10.640625 C 7.875 -11.023438 7.234375 -11.21875 6.421875 -11.21875 L 3.78125 -11.21875 Z M 3.78125 -6.828125 "/></g></g><g style="fill:#e1b500;fill-opacity:1;"><g transform="translate(180.050203, 115.414997)"><path style="stroke:none" d="M 7.75 0.28125 C 6.769531 0.28125 5.863281 0.109375 5.03125 -0.234375 C 4.195312 -0.578125 3.46875 -1.054688 2.84375 -1.671875 C 2.226562 -2.285156 1.75 -3.003906 1.40625 -3.828125 C 1.0625 -4.660156 0.890625 -5.5625 0.890625 -6.53125 C 0.890625 -7.5 1.0625 -8.394531 1.40625 -9.21875 C 1.75 -10.039062 2.226562 -10.757812 2.84375 -11.375 C 3.46875 -11.988281 4.195312 -12.46875 5.03125 -12.8125 C 5.863281 -13.15625 6.769531 -13.328125 7.75 -13.328125 C 8.726562 -13.328125 9.632812 -13.148438 10.46875 -12.796875 C 11.300781 -12.453125 12.023438 -11.96875 12.640625 -11.34375 C 13.265625 -10.726562 13.75 -10.007812 14.09375 -9.1875 C 14.4375 -8.363281 14.609375 -7.476562 14.609375 -6.53125 C 14.609375 -5.5625 14.4375 -4.660156 14.09375 -3.828125 C 13.75 -3.003906 13.265625 -2.285156 12.640625 -1.671875 C 12.023438 -1.054688 11.300781 -0.578125 10.46875 -0.234375 C 9.632812 0.109375 8.726562 0.28125 7.75 0.28125 Z M 7.75 -1.703125 C 8.414062 -1.703125 9.03125 -1.8125 9.59375 -2.03125 C 10.164062 -2.257812 10.660156 -2.585938 11.078125 -3.015625 C 11.503906 -3.441406 11.835938 -3.953125 12.078125 -4.546875 C 12.316406 -5.140625 12.4375 -5.800781 12.4375 -6.53125 C 12.4375 -7.5 12.226562 -8.34375 11.8125 -9.0625 C 11.394531 -9.789062 10.832031 -10.351562 10.125 -10.75 C 9.414062 -11.15625 8.625 -11.359375 7.75 -11.359375 C 7.09375 -11.359375 6.476562 -11.242188 5.90625 -11.015625 C 5.34375 -10.785156 4.847656 -10.457031 4.421875 -10.03125 C 3.992188 -9.613281 3.660156 -9.109375 3.421875 -8.515625 C 3.179688 -7.921875 3.0625 -7.257812 3.0625 -6.53125 C 3.0625 -5.550781 3.269531 -4.695312 3.6875 -3.96875 C 4.101562 -3.25 4.664062 -2.691406 5.375 -2.296875 C 6.082031 -1.898438 6.875 -1.703125 7.75 -1.703125 Z M 7.75 -1.703125 "/></g></g><g style="fill:#e1b500;fill-opacity:1;"><g transform="translate(195.553009, 115.414997)"><path style="stroke:none" d="M 4.359375 0 L 0.421875 -13.046875 L 2.625 -13.046875 L 5.46875 -2.90625 L 8.4375 -13.046875 L 10.609375 -13.046875 L 13.578125 -2.90625 L 16.421875 -13.046875 L 18.546875 -13.046875 L 14.625 0 L 12.421875 0 L 9.5 -9.921875 L 6.5625 0 Z M 4.359375 0 "/></g></g><g style="fill:#e1b500;fill-opacity:1;"><g transform="translate(214.542324, 115.414997)"><path style="stroke:none" d="M 1.703125 0 L 1.703125 -13.046875 L 10.125 -13.046875 L 10.125 -11.203125 L 3.78125 -11.203125 L 3.78125 -7.6875 L 9.265625 -7.6875 L 9.265625 -5.9375 L 3.78125 -5.9375 L 3.78125 -1.859375 L 10.1875 -1.859375 L 10.1875 0 Z M 1.703125 0 "/></g></g><g style="fill:#e1b500;fill-opacity:1;"><g transform="translate(225.962017, 115.414997)"><path style="stroke:none" d="M 1.703125 0 L 1.703125 -13.046875 L 6.625 -13.046875 C 7.53125 -13.046875 8.3125 -12.890625 8.96875 -12.578125 C 9.632812 -12.265625 10.148438 -11.816406 10.515625 -11.234375 C 10.878906 -10.660156 11.0625 -9.976562 11.0625 -9.1875 C 11.0625 -8.539062 10.921875 -7.96875 10.640625 -7.46875 C 10.367188 -6.96875 9.984375 -6.554688 9.484375 -6.234375 C 8.992188 -5.921875 8.421875 -5.707031 7.765625 -5.59375 L 11.703125 0 L 9.171875 0 L 5.5625 -5.265625 L 3.78125 -5.265625 L 3.78125 0 Z M 3.78125 -7 L 6.28125 -7 C 7.125 -7 7.78125 -7.175781 8.25 -7.53125 C 8.71875 -7.894531 8.953125 -8.414062 8.953125 -9.09375 C 8.953125 -9.78125 8.742188 -10.316406 8.328125 -10.703125 C 7.910156 -11.085938 7.28125 -11.28125 6.4375 -11.28125 L 3.78125 -11.28125 Z M 3.78125 -7 "/></g></g><g style="fill:#e1b500;fill-opacity:1;"><g transform="translate(238.351216, 115.414997)"><path style="stroke:none" d="M 1.703125 0 L 1.703125 -13.046875 L 10.125 -13.046875 L 10.125 -11.203125 L 3.78125 -11.203125 L 3.78125 -7.6875 L 9.265625 -7.6875 L 9.265625 -5.9375 L 3.78125 -5.9375 L 3.78125 -1.859375 L 10.1875 -1.859375 L 10.1875 0 Z M 1.703125 0 "/></g></g><g style="fill:#e1b500;fill-opacity:1;"><g transform="translate(249.770908, 115.414997)"><path style="stroke:none" d="M 1.703125 0 L 1.703125 -13.046875 L 5.78125 -13.046875 C 7.070312 -13.046875 8.210938 -12.765625 9.203125 -12.203125 C 10.203125 -11.648438 10.984375 -10.882812 11.546875 -9.90625 C 12.109375 -8.925781 12.390625 -7.796875 12.390625 -6.515625 C 12.390625 -5.566406 12.226562 -4.691406 11.90625 -3.890625 C 11.59375 -3.085938 11.140625 -2.394531 10.546875 -1.8125 C 9.960938 -1.238281 9.265625 -0.789062 8.453125 -0.46875 C 7.640625 -0.15625 6.75 0 5.78125 0 Z M 3.78125 -1.953125 L 5.53125 -1.953125 C 6.226562 -1.953125 6.863281 -2.054688 7.4375 -2.265625 C 8.007812 -2.472656 8.503906 -2.773438 8.921875 -3.171875 C 9.335938 -3.566406 9.65625 -4.046875 9.875 -4.609375 C 10.101562 -5.171875 10.21875 -5.804688 10.21875 -6.515625 C 10.21875 -7.460938 10.019531 -8.28125 9.625 -8.96875 C 9.238281 -9.65625 8.691406 -10.179688 7.984375 -10.546875 C 7.285156 -10.921875 6.46875 -11.109375 5.53125 -11.109375 L 3.78125 -11.109375 Z M 3.78125 -1.953125 "/></g></g><g style="fill:#e1b500;fill-opacity:1;"><g transform="translate(263.05503, 115.414997)"><path style="stroke:none" d=""/></g></g><g style="fill:#e1b500;fill-opacity:1;"><g transform="translate(267.622904, 115.414997)"><path style="stroke:none" d="M 1.703125 0 L 1.703125 -13.046875 L 6.171875 -13.046875 C 7.421875 -13.046875 8.429688 -12.765625 9.203125 -12.203125 C 9.972656 -11.648438 10.359375 -10.835938 10.359375 -9.765625 C 10.359375 -9.347656 10.257812 -8.953125 10.0625 -8.578125 C 9.875 -8.210938 9.625 -7.890625 9.3125 -7.609375 C 9 -7.328125 8.675781 -7.117188 8.34375 -6.984375 C 9.050781 -6.765625 9.640625 -6.367188 10.109375 -5.796875 C 10.585938 -5.222656 10.828125 -4.507812 10.828125 -3.65625 C 10.828125 -2.945312 10.644531 -2.316406 10.28125 -1.765625 C 9.925781 -1.210938 9.414062 -0.78125 8.75 -0.46875 C 8.082031 -0.15625 7.296875 0 6.390625 0 Z M 3.78125 -1.640625 L 6.03125 -1.640625 C 6.925781 -1.640625 7.585938 -1.8125 8.015625 -2.15625 C 8.453125 -2.507812 8.671875 -3.039062 8.671875 -3.75 C 8.671875 -4.457031 8.453125 -4.992188 8.015625 -5.359375 C 7.578125 -5.722656 6.90625 -5.90625 6 -5.90625 L 3.78125 -5.90625 Z M 3.78125 -7.46875 L 5.859375 -7.46875 C 6.359375 -7.46875 6.789062 -7.546875 7.15625 -7.703125 C 7.519531 -7.867188 7.804688 -8.101562 8.015625 -8.40625 C 8.222656 -8.71875 8.328125 -9.085938 8.328125 -9.515625 C 8.328125 -10.117188 8.109375 -10.582031 7.671875 -10.90625 C 7.242188 -11.238281 6.628906 -11.40625 5.828125 -11.40625 L 3.78125 -11.40625 Z M 3.78125 -7.46875 "/></g></g><g style="fill:#e1b500;fill-opacity:1;"><g transform="translate(279.443452, 115.414997)"><path style="stroke:none" d="M 4.71875 0 L 4.71875 -5.640625 L 0.125 -13.046875 L 2.5 -13.046875 L 5.8125 -7.65625 L 9.109375 -13.046875 L 11.421875 -13.046875 L 6.828125 -5.625 L 6.828125 0 Z M 4.71875 0 "/></g></g></g></svg>